<svg width="12" height="12" fill="none" xmlns="http://www.w3.org/2000/svg"><path fill-rule="evenodd" clip-rule="evenodd" d="M6.349.142a.497.497 0 00-.698 0 .5.5 0 00-.04.043L.119 6.677a.498.498 0 00-.117.295H0v3a2 2 0 002 2h8a2 2 0 002-2v-3a.497.497 0 00-.118-.295L6.388.185A.5.5 0 006.35.142zM11 7.183L6 1.274l-5 5.91v2.788a1 1 0 001 1h8a1 1 0 001-1V7.183z" fill="#212121"/><path fill-rule="evenodd" clip-rule="evenodd" d="M11 7.183L6 1.274l-5 5.91v2.788a1 1 0 001 1h8a1 1 0 001-1V7.183z" fill="#F0F0F0"/></svg>